<svg xmlns="http://www.w3.org/2000/svg" width="87.085" height="17" viewBox="0 0 87.085 17"><g opacity="0.6"><path d="M387.157,118.477a2.794,2.794,0,0,1-3.459,2.979q-3,0-4.051-.817c-.7-.547-1.047-1.631-1.047-3.254v-11.8h3.1V117.5c0,.849.319,1.329.955,1.43a1.656,1.656,0,0,0,.341.025c.666,0,1.054-.448,1.161-1.344l.794-5.036.069-.73c0-.577-.22-.869-.661-.869H382.1v-2.616h3.217q2.868,0,2.868,2.64a5.7,5.7,0,0,1-.067.819Z" transform="translate(-315.294 -104.504)" fill="#f6f6f6" opacity="0.6"/><path d="M422,105.59h3.138v2.081H422Zm0,2.771h3.138v12.92H422Z" transform="translate(-347.955 -104.504)" fill="#f6f6f6" opacity="0.6"/><path d="M448.376,119.453l-5.028,7.589h5.028v2.668h-7.367q-1.277,0-1.279-1.777v-.96l5.053-7.515h-4.664V116.79h6.488a1.925,1.925,0,0,1,1.351.4,1.628,1.628,0,0,1,.418,1.237Z" transform="translate(-361.297 -112.932)" fill="#f6f6f6" opacity="0.6"/><path d="M149.111,129.1v-9.094a1.71,1.71,0,0,0-.247-1.047.965.965,0,0,0-.683-.361,7.417,7.417,0,0,0-.742-.045,1.435,1.435,0,0,0-1.089.341,1.6,1.6,0,0,0-.319,1.111V129.1H142.9v-9.25a4.131,4.131,0,0,1,.9-2.992,4.633,4.633,0,0,1,3.286-.9c.247,0,.53.012.854.037l.784.057a3.137,3.137,0,0,1,3.506,3.8v9.181Z" transform="translate(-137.919 -112.308)" fill="#f6f6f6"/><path d="M190.848,110.249v6.642q0,.859,1.173.856h.668v2.759h-1.841a2.955,2.955,0,0,1-2.356-.854,4.172,4.172,0,0,1-.742-2.742V105.7l3.1-1.141v3.031h1.863v2.663h-1.863" transform="translate(-171.671 -103.729)" fill="#f6f6f6"/><path d="M215.8,129.24h-1.732a3.863,3.863,0,0,1-2.969-.933,4.733,4.733,0,0,1-.829-3.162v-5.177a4.721,4.721,0,0,1,.841-3.143,3.8,3.8,0,0,1,2.957-.955h1.707a3.888,3.888,0,0,1,2.969.945,4.644,4.644,0,0,1,.854,3.153v5.177a4.73,4.73,0,0,1-.844,3.14,3.789,3.789,0,0,1-2.957.955m.661-4.14v-5.432a1.3,1.3,0,0,0-.275-.933,1.594,1.594,0,0,0-.965-.339H214.6a1.559,1.559,0,0,0-.953.332,1.335,1.335,0,0,0-.262.94v5.748a1.43,1.43,0,0,0,.247.97,1.566,1.566,0,0,0,.963.327h.616a1.608,1.608,0,0,0,.965-.339,1.289,1.289,0,0,0,.275-.933Z" transform="translate(-188.618 -112.24)" fill="#f6f6f6"/><path d="M258.735,129.907a3.48,3.48,0,0,1-2.767-.965,4.786,4.786,0,0,1-.829-3.128V116.79h3.1v9.344a1.332,1.332,0,0,0,.272.953,1.732,1.732,0,0,0,.99.366h.574a1.712,1.712,0,0,0,.96-.341,1.637,1.637,0,0,0,.322-.977V116.79h3.1v9.025c0,1.623-.393,2.722-1.173,3.264s-2.294.829-4.538.829" transform="translate(-222.385 -112.932)" fill="#f6f6f6"/><path d="M303.491,129.71a3.8,3.8,0,0,1-2.744-.831,3.836,3.836,0,0,1-.827-2.786v-5.57a4.466,4.466,0,0,1,.6-2.536,2.821,2.821,0,0,1,1.878-1.128l.589-.067h3.984v2.665h-2.457a1.512,1.512,0,0,0-1.091.351,1.591,1.591,0,0,0-.366,1.173V125.6a1.455,1.455,0,0,0,.366,1.086,1.628,1.628,0,0,0,1.158.351h2.413v2.668Z" transform="translate(-256.084 -112.932)" fill="#f6f6f6"/><path d="M340.1,121.281v-9.01a1.891,1.891,0,0,0-.215-1.076,1.049,1.049,0,0,0-.693-.366,4.86,4.86,0,0,0-.661-.077h-.272a1.424,1.424,0,0,0-.955.406,1.869,1.869,0,0,0-.247,1.118v9H333.94V105.59h3.118V109.2a2.591,2.591,0,0,1,1.1-.789,4.566,4.566,0,0,1,1.69-.285l.844.069a3.1,3.1,0,0,1,2.009.955,4.338,4.338,0,0,1,.527,2.5v9.623Z" transform="translate(-281.685 -104.504)" fill="#f6f6f6"/><path d="M125.905,118.768a1.569,1.569,0,0,0-3.135,0v11.3h3.138v-11.3Z" transform="translate(-122.77 -113.287)" fill="#f6f6f6"/><path d="M124.339,104.338a1.566,1.566,0,1,0-1.109-.458,1.569,1.569,0,0,0,1.109.458" transform="translate(-122.77 -101.2)" fill="#f6f6f6"/></g></svg>